<svg width="80" height="80" viewBox="0 0 80 80" fill="none" xmlns="http://www.w3.org/2000/svg">
<path d="M80 39.6667H42.1L78.15 27.95L77.9333 27.3167L41.9 39.0333L72.55 16.7666L72.1667 16.2167L41.5 38.5L63.7833 7.83334L63.2334 7.45003L40.9667 38.1L52.6833 2.06667L52.05 1.85L40.3333 37.9V0H39.6667V37.9L27.95 1.85L27.3167 2.06667L39.0333 38.1L16.7666 7.45003L16.2167 7.83334L38.5 38.5L7.83334 16.2167L7.45003 16.7666L38.1 39.0333L2.06667 27.3167L1.85 27.95L37.9 39.6667H0V40.3333H37.9L1.85 52.05L2.06667 52.6833L38.1 40.9667L7.45003 63.2334L7.83334 63.7833L38.5 41.5L16.2167 72.1667L16.7666 72.55L39.0333 41.9L27.3167 77.9333L27.95 78.15L39.6667 42.1V80H40.3333V42.1L52.05 78.15L52.6833 77.9333L40.9667 41.9L63.2334 72.55L63.7833 72.1667L41.5 41.5L72.1667 63.7833L72.55 63.2334L41.9 40.9667L77.9333 52.6833L78.15 52.05L42.1 40.3333H80V39.6667Z" fill="#800080"/>
</svg>
