<svg width="80" height="80" viewBox="0 0 80 80" fill="none" xmlns="http://www.w3.org/2000/svg">
<path d="M67.5648 53.9907C69.9457 52.8221 72.0459 51.4944 73.7871 50.0362L73.9879 50.2008C77.5271 53.1024 79.5 56.4433 79.5 59.9587C79.5 64.4273 76.321 68.6395 70.7568 71.9879L70.7505 71.9917L70.7442 71.9958C69.7609 72.628 68.6755 73.2303 67.5195 73.8021L67.5187 73.8025C60.1219 77.4775 50.2482 79.5 39.7328 79.5C29.2181 79.5 19.3438 77.4612 11.9461 73.8021L11.9457 73.8019C4.44304 70.099 0.5 65.2238 0.5 60.1735C0.5 56.7965 2.29982 53.455 5.81786 50.4766L6.01312 50.3113C7.68643 51.6617 9.67049 52.896 11.9008 53.9907C19.0559 57.5027 28.9005 59.6656 39.7328 59.6656C50.5651 59.6656 60.4097 57.5027 67.5648 53.9907Z" stroke="#800080"/>
<ellipse cx="40" cy="20" rx="40" ry="20" fill="#800080"/>
</svg>
