<svg width="80" height="80" viewBox="0 0 80 80" fill="none" xmlns="http://www.w3.org/2000/svg">
<path d="M59.5388 20.3347L59.6953 20.3323L59.6926 20.4873C59.5314 29.9644 52.6465 37.832 43.6008 39.5084L43.6013 40.4917C47.7136 41.2495 51.453 43.2638 54.3551 46.3586L54.3559 46.3594C57.742 49.954 59.6119 54.5948 59.6926 59.5124L59.6952 59.6677L59.5562 59.6654C50.0761 59.5042 42.2064 52.6212 40.5296 43.5782L39.5462 43.5787C38.7883 47.6898 36.7734 51.4281 33.6777 54.3294L33.6769 54.3302C30.0812 57.7152 25.439 59.5848 20.5199 59.6654L20.3502 59.6681V59.5042L20.3503 59.4885C20.3503 59.4156 20.3505 59.3033 20.335 59.1908C20.5081 53.9705 22.7142 49.1065 26.5245 45.522C29.3314 42.8932 32.7494 41.1851 36.4249 40.5082L36.4257 39.5249C27.3958 37.8485 20.4953 29.9807 20.3502 20.5048L20.3476 20.3347H20.5281H20.5286H20.5291H20.5296H20.5301H20.5306H20.531H20.5315H20.532H20.5325H20.533H20.5335H20.534H20.5345H20.535H20.5354H20.5359H20.5364H20.5369H20.5374H20.5379H20.5384H20.5389H20.5394H20.5399H20.5404H20.5409H20.5414H20.5418H20.5423H20.5428H20.5433H20.5438H20.5443H20.5448H20.5453H20.5458H20.5463H20.5468H20.5473H20.5478H20.5483H20.5488H20.5493H20.5498H20.5503H20.5508H20.5513H20.5518H20.5523H20.5528H20.5533H20.5538H20.5543H20.5548H20.5553H20.5558H20.5563H20.5568H20.5574H20.5579H20.5584H20.5589H20.5594H20.5599H20.5604H20.5609H20.5614H20.5619H20.5624H20.5629H20.5634H20.564H20.5645H20.565H20.5655H20.566H20.5665H20.567H20.5675H20.568H20.5686H20.5691H20.5696H20.5701H20.5706H20.5711H20.5716H20.5722H20.5727H20.5732H20.5737H20.5742H20.5747H20.5752H20.5758H20.5763H20.5768H20.5773H20.5778H20.5784H20.5789H20.5794H20.5799H20.5804H20.5809H20.5815H20.582H20.5825H20.583H20.5836H20.5841H20.5846H20.5851H20.5856H20.5862H20.5867H20.5872H20.5877H20.5883H20.5888H20.5893H20.5898H20.5904H20.5909H20.5914H20.5919H20.5925H20.593H20.5935H20.594H20.5946H20.5951H20.5956H20.5962H20.5967H20.5972H20.5977H20.5983H20.5988H20.5993H20.5999H20.6004H20.6009H20.6014H20.602H20.6025H20.603H20.6036H20.6041H20.6046H20.6052H20.6057H20.6062H20.6068H20.6073H20.6078H20.6084H20.6089H20.6094H20.61H20.6105H20.6111H20.6116H20.6121H20.6127H20.6132H20.6137H20.6143H20.6148H20.6153H20.6159H20.6164H20.617H20.6175H20.618H20.6186H20.6191H20.6197H20.6202H20.6207H20.6213H20.6218H20.6224H20.6229H20.6234H20.624H20.6245H20.6251H20.6256H20.6262H20.6267H20.6272H20.6278H20.6283H20.6289H20.6294H20.63H20.6305H20.6311H20.6316H20.6321H20.6327H20.6332H20.6338H20.6343H20.6349H20.6354H20.636H20.6365H20.6371H20.6376H20.6382H20.6387H20.6393H20.6398H20.6403H20.6409H20.6414H20.642H20.6425H20.6431H20.6436H20.6442H20.6447H20.6453H20.6458H20.6464H20.6469H20.6475H20.6481H20.6486H20.6492H20.6497H20.6503H20.6508H20.6514H20.6519H20.6525H20.653H20.6536H20.6541H20.6547H20.6552H20.6558H20.6564H20.6569H20.6575H20.658H20.6586H20.6591H20.6597H20.6602H20.6608H20.6614H20.6619H20.6625H20.663H20.6636H20.6641H20.6647H20.6653H20.6658H20.6664H20.6669H20.6675H20.668H20.6686H20.6692H20.6697H20.6703H20.6708H20.6714H20.672H20.6725H20.6731H20.6736H20.6742H20.6748H20.6753H20.6759H20.6764H20.677H20.6776H20.6781H20.6787H20.6793H20.6798H20.6804H20.6809H20.6815H20.6821H20.6826H20.6832H20.6838H20.6843H20.6849H20.6854H20.686H20.6866H20.6871H20.6877H20.6883H20.6888H20.6894H20.69H20.6905H20.6911H20.6917H20.6922H20.6928H20.6934H20.6939H20.6945H20.6951H20.6956H20.6962H20.6968H20.6973H20.6979H20.6985H20.699H20.6996H20.7002H20.7007H20.7013H20.7019H20.7024H20.703H20.7036H20.7041H20.7047H20.7053H20.7059H20.7064H20.707H20.7076H20.7081H20.7087H20.7093H20.7098H20.7104H20.711H20.7116H20.7121H20.7127H20.7133H20.7138H20.7144H20.715H20.7155H20.7161H20.7167H20.7173H20.7178H20.7184H20.719H20.7196H20.7201H20.7207H20.7213H20.7218H20.7224H20.723H20.7236H20.7241H20.7247H20.7253H20.7259H20.7264H20.727H20.7276H20.7281H20.7287H20.7293H20.7299H20.7304H20.731H20.7316H20.7322H20.7327H20.7333H20.7339H20.7345H20.735H20.7356H20.7362H20.7368H20.7373H20.7379H20.7385H20.7391H20.7396H20.7402H20.7408H20.7414H20.7419H20.7425H20.7431H20.7437H20.7443H20.7448H20.7454H20.746H20.7466H20.7471H20.7477H20.7483H20.7489H20.7494H20.75H20.7506H20.7512H20.7518H20.7523H20.7529H20.7535H20.7541H20.7546H20.7552H20.7558H20.7564H20.757H20.7575H20.7581H20.7587H20.7593H20.7598H20.7604H20.761H20.7616H20.7622H20.7627H20.7633H20.7639H20.7645H20.7651H20.7656H20.7662H20.7668H20.7674H20.768H20.7685H20.7691H20.7697H20.7703H20.7709H20.7714H20.772H20.7726H20.7732H20.7738H20.7743H20.7749H20.7755H20.7761H20.7766H20.7772H20.7778H20.7784H20.779H20.7796H20.7801H20.7807H20.7813H20.7819H20.7825H20.783H20.7836H20.7842H20.7848H20.7854H20.7859H20.7865H20.7871H20.7877H20.7883H20.7888H20.7894H20.79H20.7906H20.7912H20.7917H20.7923H20.7929H20.7935H20.7941H20.7946H20.7952H20.7958H20.7964H20.797H20.7976H20.7981H20.7987H20.7993H20.7999H20.8005H20.801H20.8015C26.039 20.4978 30.9204 22.7051 34.5153 26.5245L34.5155 26.5248C37.1441 29.3138 38.8526 32.7301 39.5296 36.4046L40.5129 36.4054C42.1899 27.3784 50.0598 20.4797 59.5388 20.3347Z" stroke="#800080"/>
<circle cx="60" cy="40" r="20" fill="#800080"/>
<circle cx="20" cy="40" r="20" fill="#800080"/>
</svg>
