<svg width="80" height="80" viewBox="0 0 80 80" fill="none" xmlns="http://www.w3.org/2000/svg">
<path d="M60.1926 19.8347C60.0106 8.85948 51.0329 0 40.0213 0C29.0099 0 20.0322 8.87607 19.8502 19.8347C14.8075 19.9173 10.0623 21.8348 6.35872 25.3058C2.44025 28.9918 0.175128 34 0.00978402 39.3719C-0.155551 44.7438 1.7789 49.8843 5.48245 53.8017C9.16944 57.719 14.1792 59.9835 19.5527 60.1488H19.8337C19.9163 65.1901 21.8343 69.9504 25.3064 73.6364C28.9934 77.5537 34.0031 79.8182 39.3765 79.9835C39.5915 79.9835 39.8064 80 40.0048 80C45.1634 80 50.0408 78.0662 53.8105 74.529C57.729 70.843 59.9941 65.8347 60.1595 60.4628C60.1595 60.3637 60.1595 60.2645 60.1595 60.1819C71.1379 60 79.9999 51.0248 79.9999 40.0165C80.033 28.9918 71.1544 20.0165 60.1926 19.8347ZM40.0213 0.661149C50.6691 0.661149 59.3493 9.23963 59.5312 19.8347C49.8093 19.9835 41.7409 27.0578 40.0213 36.314C39.3269 32.5455 37.5744 29.0413 34.8794 26.1818C31.1923 22.2645 26.1827 20 20.8092 19.8347C20.71 19.8347 20.6108 19.8347 20.5281 19.8347C20.6935 9.23963 29.3737 0.661149 40.0213 0.661149ZM19.8502 59.5042C19.7676 59.5042 19.6684 59.5042 19.5857 59.5042C14.3776 59.3389 9.5332 57.1736 5.97846 53.3719C2.40718 49.5703 0.52233 44.6116 0.687674 39.405C0.853009 34.1983 3.01892 29.3554 6.82169 25.8017C10.3929 22.4463 14.9893 20.5785 19.8502 20.5124C19.9991 30.2314 27.0755 38.2975 36.3344 40.0165C32.5646 40.7107 29.0595 42.4629 26.1827 45.1571C22.2642 48.843 19.9991 53.8513 19.8337 59.2231C19.8502 59.3058 19.8502 59.405 19.8502 59.5042ZM59.5312 60.4297C59.3658 65.6364 57.1999 70.4793 53.3971 74.033C49.5944 77.6033 44.6343 79.4711 39.4262 79.3223C34.2181 79.157 29.3737 76.9917 25.8189 73.1901C22.4626 69.6199 20.5942 65.0248 20.5281 60.1653C25.5709 60.0827 30.3326 58.1653 34.0196 54.6942C37.1941 51.7191 39.2608 47.8843 40.0379 43.6694C41.7574 52.9422 49.8259 60 59.5477 60.1653C59.5312 60.248 59.5312 60.3472 59.5312 60.4297ZM60.1926 59.5042C60.1098 54.4628 58.192 49.7025 54.7198 46.0166C51.7438 42.843 47.9079 40.7769 43.6919 40C52.9673 38.281 60.0272 30.2149 60.1926 20.4958C70.8071 20.6777 79.3716 29.3554 79.3716 40C79.3716 50.6446 70.7906 59.3223 60.1926 59.5042Z" fill="#800080"/>
</svg>
