<svg width="80" height="80" viewBox="0 0 80 80" fill="none" xmlns="http://www.w3.org/2000/svg">
<path d="M74.3049 49.8141C77.6785 46.8567 79.4823 43.5026 79.4823 40C79.4823 36.4312 77.5783 32.9616 73.9875 29.9215C77.5616 26.898 79.4823 23.4449 79.4823 19.8265C79.4823 14.4898 75.3236 9.4837 67.7578 5.74969C60.2756 2.04874 50.3215 0 39.7495 0C29.1774 0 19.2067 2.04874 11.7244 5.74969C4.15866 9.4837 0 14.4898 0 19.8265C0 23.4449 1.90397 26.898 5.49479 29.9215C1.90397 32.9616 0 36.4312 0 40C0 43.6183 1.90397 47.0715 5.49479 50.095C1.90397 53.135 0 56.6047 0 60.1735C0 65.51 4.15866 70.5163 11.7244 74.2503C19.2067 77.9512 29.1608 80 39.7328 80C50.3048 80 60.2589 77.9677 67.7412 74.2503C68.9103 73.672 70.0125 73.0607 71.0146 72.4163C76.643 69.0293 80 64.684 80 59.9587C80 56.2412 77.9123 52.7716 74.3049 49.8141ZM0.668059 19.8265C0.668059 9.26892 18.1879 0.660884 39.7328 0.660884C61.2777 0.660884 78.7975 9.25234 78.7975 19.8265C78.7975 30.3841 61.2777 38.9921 39.7328 38.9921C18.1879 38.9921 0.668059 30.3841 0.668059 19.8265ZM39.7328 59.1656C18.1879 59.1656 0.668059 50.5576 0.668059 40C0.668059 36.5965 2.52192 33.2755 6.01254 30.3511C7.61588 31.6233 9.51988 32.8294 11.7244 33.9034C19.2067 37.6043 29.1608 39.653 39.7328 39.653C50.3048 39.653 60.2589 37.6208 67.7412 33.9034C69.9457 32.8129 71.8497 31.6233 73.4531 30.3511C76.9436 33.2755 78.7975 36.613 78.7975 40C78.7975 50.5576 61.2777 59.1656 39.7328 59.1656Z" fill="#800080"/>
</svg>
