<svg width="58" height="50" viewBox="0 0 58 50" fill="none" xmlns="http://www.w3.org/2000/svg">
<path d="M53.311 0.209989L57.704 11.479C54.266 11.861 51.5283 12.5613 49.491 13.58C47.581 14.5987 46.626 16.6997 46.626 19.883V22.366H57.895V49.488H33.447V21.984C33.447 15.6173 34.9113 10.5877 37.84 6.89499C40.896 3.20233 46.053 0.973994 53.311 0.209989ZM20.65 0.209989L25.043 11.479C21.605 11.861 18.8673 12.5613 16.83 13.58C14.92 14.5987 13.965 16.6997 13.965 19.883V22.366H25.234V49.488H0.786001V21.984C0.786001 15.6173 2.25033 10.5877 5.179 6.89499C8.235 3.20233 13.392 0.973994 20.65 0.209989Z" fill="#800080"/>
</svg>
